<svg width="1768" height="743" viewBox="0 0 1768 743" fill="none" xmlns="http://www.w3.org/2000/svg">
<path d="M263.096 137.84C305.429 170.985 370.344 219.929 400.483 253.932L348.105 300.901C324.663 271.191 273.916 226.712 232.012 191.507V396.815H164.95V207.392C129.316 244.229 87.8419 276.515 41.7313 300.386C32.286 284.071 12.9659 258.483 0 244.658C73.3304 211.17 134.897 150.377 172.593 89.2392H14.6832V26.814H382.537V89.2392H253.479C246.782 101.003 239.655 112.681 232.098 124.015V163.858L263.096 137.84Z" fill="#FFBA08"/>
<path d="M561.469 221.215C561.04 224.993 560.611 228.771 559.752 232.12C581.992 254.703 625.526 304.592 636.431 317.987L595.387 369.507C581.992 347.697 561.899 319.189 543.008 294.546C528.325 333.1 504.883 369.078 468.046 396.384C460.06 383.847 436.619 359.118 424.512 350.273C473.542 314.638 492.776 266.896 499.903 221.215H431.639V163.856H504.54V107.27H496.554C488.568 126.504 479.81 143.763 470.536 157.588C459.631 147.541 435.331 130.368 421.936 122.382C443.316 93.4452 458.343 46.1325 465.899 0.0219727L524.117 11.7857C521.627 24.7516 518.708 38.1469 514.929 51.1987H620.546V107.356H566.106V163.942H629.819V221.301H561.555L561.469 221.215ZM805.761 35.5709V378.695H743.765V356.456H698.513V385.393H639.437V35.5709H805.761ZM743.765 299.526V92.5006H698.513V299.526H743.765Z" fill="#FFBA08"/>
<path d="M0 432.62H261.637C349.135 432.62 373.349 466.279 373.349 502.429V508.183C373.349 548.025 339.69 563.223 324.921 567.774C345.872 573.098 390.609 590.787 390.609 644.539V650.292C390.609 698.378 363.131 738.22 264.127 738.22H0V432.62ZM95.6558 497.106V546.823H245.15C271.855 546.823 278.381 534.458 278.381 522.179V521.32C278.381 508.612 271.769 497.106 245.15 497.106H95.6558ZM95.6558 611.652V671.587H253.393C284.992 671.587 291.175 653.899 291.175 641.62V639.988C291.175 626.851 284.992 611.652 253.393 611.652H95.6558Z" fill="#FFBA08"/>
<path d="M607.953 742.685C444.119 742.685 417.414 638.357 417.414 580.912V432.62H513.499V575.159C513.499 614.572 531.188 663.43 614.565 663.43C697.941 663.43 714.771 614.572 714.771 575.159V432.62H810.513V580.912C810.513 638.443 779.257 742.685 622.808 742.685H608.039H607.953Z" fill="#FFBA08"/>
<path d="M1188.34 432.619V488.433L978.909 665.834H1191.26V738.134H844.184V681.891L1048.29 503.202H847.447V432.533H1188.34V432.619Z" fill="#FFBA08"/>
<path d="M1228.65 432.62H1324.31V543.903H1529.62V432.62H1625.36V738.22H1529.62V617.92H1324.31V738.22H1228.65V432.62Z" fill="#FFBA08"/>
<path d="M1768 738.22H1672.34V432.62H1768V738.22Z" fill="#FFBA08"/>
</svg>
