<svg width="109" height="85" viewBox="0 0 109 85" fill="none" xmlns="http://www.w3.org/2000/svg">
<g filter="url(#filter0_f_1_13995)">
<path d="M65.7871 79C85.9455 79 102.287 62.6584 102.287 42.5C102.287 22.3416 85.9455 6 65.7871 6C45.6287 6 29.2871 22.3416 29.2871 42.5C29.2871 62.6584 45.6287 79 65.7871 79Z" fill="url(#paint0_linear_1_13995)"/>
</g>
<path d="M12.7293 29.934C14.7775 31.5376 17.9182 33.9057 19.3765 35.5508L16.8422 37.8233C15.7081 36.3859 13.2528 34.2339 11.2254 32.5305V42.4639H7.98074V33.2991C6.25663 35.0814 4.25002 36.6435 2.01907 37.7984C1.56208 37.0091 0.627325 35.771 0 35.1021C3.54792 33.4819 6.52668 30.5405 8.35049 27.5826H0.710415V24.5623H18.5082V27.5826H12.264C11.94 28.1517 11.5951 28.7167 11.2295 29.2651V31.1928L12.7293 29.934Z" fill="#FFBA08"/>
<path d="M27.1651 33.968C27.1443 34.1508 27.1235 34.3336 27.082 34.4956C28.158 35.5883 30.2643 38.002 30.7919 38.6501L28.8061 41.1428C28.158 40.0876 27.1859 38.7083 26.2719 37.5159C25.5615 39.3813 24.4273 41.122 22.645 42.4432C22.2586 41.8366 21.1245 40.6401 20.5387 40.2122C22.9109 38.4881 23.8415 36.1782 24.1863 33.968H20.8835V31.1928H24.4107V28.455H24.0243C23.6379 29.3856 23.2142 30.2207 22.7655 30.8896C22.2379 30.4035 21.0622 29.5726 20.4141 29.1862C21.4485 27.7862 22.1756 25.4971 22.5412 23.2661L25.3579 23.8353C25.2374 24.4626 25.0962 25.1107 24.9134 25.7422H30.0234V28.4592H27.3894V31.197H30.472V33.9722H27.1692L27.1651 33.968ZM38.9845 24.9861V41.5873H35.985V40.5113H33.7956V41.9114H30.9373V24.9861H38.9845ZM35.985 37.7569V27.7405H33.7956V37.7569H35.985Z" fill="#FFBA08"/>
<path d="M0 44.1965H12.6587C16.8921 44.1965 18.0636 45.8251 18.0636 47.5741V47.8525C18.0636 49.7801 16.4351 50.5155 15.7205 50.7357C16.7342 50.9932 18.8987 51.8491 18.8987 54.4498V54.7281C18.8987 57.0546 17.5693 58.9823 12.7792 58.9823H0V44.1965ZM4.62808 47.3165V49.722H11.861C13.1531 49.722 13.4688 49.1237 13.4688 48.5296V48.4881C13.4688 47.8732 13.1489 47.3165 11.861 47.3165H4.62808ZM4.62808 52.8586V55.7584H12.2598C13.7887 55.7584 14.0878 54.9026 14.0878 54.3085V54.2296C14.0878 53.5939 13.7887 52.8586 12.2598 52.8586H4.62808Z" fill="#FFBA08"/>
<path d="M29.4141 59.1983C21.4874 59.1983 20.1953 54.1506 20.1953 51.3713V44.1965H24.8442V51.093C24.8442 52.9999 25.7 55.3638 29.734 55.3638C33.768 55.3638 34.5822 52.9999 34.5822 51.093V44.1965H39.2145V51.3713C39.2145 54.1548 37.7023 59.1983 30.1328 59.1983H29.4182H29.4141Z" fill="#FFBA08"/>
<path d="M57.4939 44.1965V46.8969L47.3611 55.4801H57.6351V58.9781H40.8428V56.257L50.718 47.6115H41.0006V44.1924H57.4939V44.1965Z" fill="#FFBA08"/>
<path d="M59.4463 44.1965H64.0744V49.5807H74.0077V44.1965H78.6399V58.9823H74.0077V53.1619H64.0744V58.9823H59.4463V44.1965Z" fill="#FFBA08"/>
<path d="M85.5402 58.9823H80.9121V44.1965H85.5402V58.9823Z" fill="#FFBA08"/>
<defs>
<filter id="filter0_f_1_13995" x="23.3144" y="0.0272727" width="84.9455" height="84.9455" filterUnits="userSpaceOnUse" color-interpolation-filters="sRGB">
<feFlood flood-opacity="0" result="BackgroundImageFix"/>
<feBlend mode="normal" in="SourceGraphic" in2="BackgroundImageFix" result="shape"/>
<feGaussianBlur stdDeviation="2.98636" result="effect1_foregroundBlur_1_13995"/>
</filter>
<linearGradient id="paint0_linear_1_13995" x1="55.856" y1="77.6727" x2="88.8166" y2="15.0697" gradientUnits="userSpaceOnUse">
<stop stop-color="#1A1A1A"/>
<stop offset="0.12" stop-color="#1E1D19"/>
<stop offset="0.25" stop-color="#2B2618"/>
<stop offset="0.39" stop-color="#413516"/>
<stop offset="0.53" stop-color="#604B14"/>
<stop offset="0.67" stop-color="#886711"/>
<stop offset="0.82" stop-color="#B9890D"/>
<stop offset="0.97" stop-color="#F1B009"/>
<stop offset="1" stop-color="#FFBA08"/>
</linearGradient>
</defs>
</svg>
