<svg width="407" height="323" viewBox="0 0 407 323" fill="none" xmlns="http://www.w3.org/2000/svg">
<path d="M0.131707 0.354367H272.181C363.171 0.354367 388.322 35.9012 388.322 74.1208V80.1343C388.322 122.229 353.295 138.266 337.889 142.943C359.616 148.555 406.23 167.264 406.23 224.059V230.073C406.23 280.854 377.656 322.815 274.683 322.815H0V0.220703L0.131707 0.354367ZM99.6812 68.3745V120.893H255.194C282.979 120.893 289.826 107.93 289.826 94.8343V94.0324C289.826 80.5352 282.979 68.5082 255.194 68.5082H99.6812V68.3745ZM99.6812 189.314V252.657H263.754C296.673 252.657 302.994 233.948 302.994 220.986V219.248C302.994 205.35 296.542 189.314 263.754 189.314H99.6812Z" fill="#FFBA08"/>
</svg>
