<svg width="300" height="53" viewBox="0 0 300 53" fill="none" xmlns="http://www.w3.org/2000/svg">
<path d="M0.021474 0.021793H44.3773C59.2127 0.021793 63.3134 5.81747 63.3134 12.0489V13.0294C63.3134 19.8927 57.6025 22.5073 55.0906 23.2699C58.633 24.185 66.2332 27.2354 66.2332 36.4954V37.4759C66.2332 45.7554 61.5743 52.597 44.7852 52.597H0V0L0.021474 0.021793ZM16.2524 11.112V19.6748H41.6078C46.1378 19.6748 47.2542 17.5614 47.2542 15.4261V15.2954C47.2542 13.0948 46.1378 11.1338 41.6078 11.1338H16.2524V11.112ZM16.2524 30.8305V41.1581H43.0033C48.3707 41.1581 49.4012 38.1077 49.4012 35.9943V35.711C49.4012 33.445 48.3492 30.8305 43.0033 30.8305H16.2524V30.8305Z" fill="#FFBA08"/>
<path d="M103.179 52.597C74.7647 52.597 70.1315 34.9 70.1315 25.1495V0H86.798V24.183C86.798 30.8623 89.8722 39.1524 104.321 39.1524C118.77 39.1524 121.712 30.8623 121.712 24.183V0H138.313V25.1495C138.313 34.9 132.889 52.597 105.748 52.597H103.179V52.597Z" fill="#FFBA08"/>
<path d="M204.02 0V9.61262L166.404 40.1507H204.543V52.597H142.206V42.9189L178.867 12.1629H142.798V0H204.043H204.02Z" fill="#FFBA08"/>
<path d="M208.442 0H225.359V19.1519H261.654V0H278.571V52.597H261.654V31.8981H225.359V52.597H208.442V0Z" fill="#FFBA08"/>
<path d="M300 52.597H284.416V0H300V52.597Z" fill="#FFBA08"/>
</svg>
