<svg width="210" height="211" viewBox="0 0 210 211" fill="none" xmlns="http://www.w3.org/2000/svg">
<path fill-rule="evenodd" clip-rule="evenodd" d="M105 2C48.2081 2 2 48.231 2 105.023C2 161.482 47.6664 207.48 104 208.019V208H105C161.792 208 208 161.792 208 105C208 48.2078 161.792 2 105 2ZM106 209.995C163.438 209.457 210 162.563 210 105C210 47.1032 162.897 0 105 0C47.103 0 0 47.127 0 105.023C0 162.92 47.1033 210.023 105 210.023H106V209.995Z" fill="#FFBA08"/>
<path fill-rule="evenodd" clip-rule="evenodd" d="M105.001 15.0383C55.3974 15.0383 15.0391 55.3966 15.0391 105C15.0391 154.604 55.3974 194.962 105.001 194.962C154.604 194.962 194.963 154.604 194.963 105C194.963 55.3966 154.604 15.0383 105.001 15.0383ZM13.0391 105C13.0391 54.292 54.2928 13.0383 105.001 13.0383C155.709 13.0383 196.963 54.292 196.963 105C196.963 155.708 155.709 196.962 105.001 196.962C54.2928 196.962 13.0391 155.708 13.0391 105Z" fill="#FFBA08"/>
<path fill-rule="evenodd" clip-rule="evenodd" d="M105 28.0767C62.5848 28.0767 28.0762 62.5853 28.0762 105C28.0762 147.415 62.5848 181.924 105 181.924C147.415 181.924 181.923 147.439 181.923 105C181.923 62.5853 147.415 28.0767 105 28.0767ZM26.0762 105C26.0762 61.4808 61.4802 26.0767 105 26.0767C148.519 26.0767 183.923 61.4808 183.923 105C183.923 148.543 148.519 183.924 105 183.924C61.4802 183.924 26.0762 148.52 26.0762 105Z" fill="#FFBA08"/>
<path fill-rule="evenodd" clip-rule="evenodd" d="M105.001 41.1143C69.7741 41.1143 41.1152 69.7501 41.1152 105C41.1152 140.25 69.7746 168.909 105.001 168.909C140.227 168.909 168.886 140.25 168.886 105C168.886 69.7734 140.227 41.1143 105.001 41.1143ZM39.1152 105C39.1152 68.6451 68.67 39.1143 105.001 39.1143C141.332 39.1143 170.886 68.6688 170.886 105C170.886 141.354 141.332 170.909 105.001 170.909C68.6695 170.909 39.1152 141.354 39.1152 105Z" fill="#FFBA08"/>
<path fill-rule="evenodd" clip-rule="evenodd" d="M104.976 54.1292C76.9151 54.1292 54.1055 76.9387 54.1055 105C54.1055 133.061 76.9151 155.871 104.976 155.871C133.037 155.871 155.847 133.061 155.847 105C155.847 76.9387 133.037 54.1292 104.976 54.1292ZM52.1055 105C52.1055 75.8341 75.8105 52.1292 104.976 52.1292C134.142 52.1292 157.847 75.8341 157.847 105C157.847 134.166 134.142 157.871 104.976 157.871C75.8105 157.871 52.1055 134.166 52.1055 105Z" fill="#FFBA08"/>
<path fill-rule="evenodd" clip-rule="evenodd" d="M67.2322 101.257C65.1751 122.05 80.3634 140.574 101.156 142.631C121.949 144.688 140.473 129.5 142.53 108.707C144.587 87.9139 129.399 69.3905 108.606 67.3334C87.8128 65.2763 69.2893 80.4646 67.2322 101.257ZM100.959 144.621C79.0673 142.455 63.0761 122.953 65.2419 101.061C67.4077 79.1685 86.9105 63.1773 108.803 65.3431C130.695 67.5089 146.686 87.0116 144.52 108.904C142.354 130.796 122.851 146.787 100.959 144.621Z" fill="#FFBA08"/>
<path fill-rule="evenodd" clip-rule="evenodd" d="M104.998 80.2056C91.3039 80.2056 80.2031 91.3064 80.2031 105C80.2031 118.694 91.3039 129.794 104.998 129.794C118.691 129.794 129.792 118.694 129.792 105C129.792 91.3064 118.691 80.2056 104.998 80.2056ZM78.2031 105C78.2031 90.2018 90.1994 78.2056 104.998 78.2056C119.796 78.2056 131.792 90.2018 131.792 105C131.792 119.798 119.796 131.794 104.998 131.794C90.1994 131.794 78.2031 119.798 78.2031 105Z" fill="#FFBA08"/>
</svg>
