<svg width="192" height="192" viewBox="0 0 192 192" fill="none" xmlns="http://www.w3.org/2000/svg">
<path fill-rule="evenodd" clip-rule="evenodd" d="M109.707 109.706C110.097 109.316 110.731 109.316 111.121 109.706L181.833 180.419C182.224 180.809 182.224 181.442 181.833 181.833C181.443 182.223 180.81 182.223 180.419 181.833L109.707 111.121C109.316 110.73 109.316 110.097 109.707 109.706Z" fill="#FFBA08"/>
<path fill-rule="evenodd" clip-rule="evenodd" d="M10.1973 10.1635C10.5879 9.77303 11.2211 9.77316 11.6116 10.1638L82.2934 80.876C82.6839 81.2666 82.6838 81.8997 82.2931 82.2902C81.9025 82.6806 81.2694 82.6805 80.8789 82.2899L10.197 11.5777C9.8066 11.1871 9.80673 10.5539 10.1973 10.1635Z" fill="#FFBA08"/>
<path fill-rule="evenodd" clip-rule="evenodd" d="M181.833 10.1636C182.224 10.5541 182.224 11.1873 181.833 11.5778L111.121 82.29C110.731 82.6806 110.097 82.6806 109.707 82.29C109.316 81.8995 109.316 81.2663 109.707 80.8758L180.419 10.1636C180.81 9.7731 181.443 9.7731 181.833 10.1636Z" fill="#FFBA08"/>
<path fill-rule="evenodd" clip-rule="evenodd" d="M82.2944 109.706C82.6849 110.097 82.6849 110.73 82.2944 111.121L11.5821 181.833C11.1916 182.223 10.5584 182.223 10.1679 181.833C9.77737 181.442 9.77737 180.809 10.1679 180.419L80.8802 109.706C81.2707 109.316 81.9038 109.316 82.2944 109.706Z" fill="#FFBA08"/>
<path d="M110.415 81.5823C106.439 85.5579 104.436 90.7779 104.436 95.9979C104.436 101.218 106.439 106.438 110.415 110.413C106.439 106.438 101.22 104.435 95.9996 104.435C90.7796 104.435 85.59 106.438 81.584 110.413C85.5596 106.438 87.5627 101.218 87.5627 95.9979C87.5627 90.7779 85.5596 85.5579 81.584 81.5823C89.5353 89.5336 102.433 89.5336 110.415 81.5823Z" fill="#FFBA08"/>
<path fill-rule="evenodd" clip-rule="evenodd" d="M80.8769 80.8752C81.2674 80.4846 81.9006 80.4846 82.2911 80.8752C89.8512 88.4352 102.117 88.4372 109.709 80.8738C110.1 80.4843 110.733 80.4852 111.123 80.8758C111.513 81.2665 111.513 81.8991 111.122 82.2894C107.341 86.0708 105.436 91.0335 105.436 95.9979C105.436 100.962 107.341 105.925 111.122 109.706C111.513 110.097 111.513 110.73 111.122 111.121C110.732 111.511 110.099 111.511 109.708 111.121C105.927 107.339 100.964 105.435 95.9996 105.435C91.0375 105.435 86.1029 107.338 82.2884 111.123C81.8969 111.512 81.2648 111.51 80.8755 111.119C80.4863 110.728 80.4869 110.096 80.8769 109.706C84.6583 105.925 86.5627 100.962 86.5627 95.9979C86.5627 91.0335 84.6583 86.0708 80.8769 82.2894C80.4864 81.8989 80.4864 81.2657 80.8769 80.8752ZM86.1684 86.1645C87.7619 89.2377 88.5627 92.6181 88.5627 95.9979C88.5627 99.3794 87.7611 102.762 86.1658 105.836C89.2399 104.238 92.6134 103.435 95.9996 103.435C99.3777 103.435 102.756 104.235 105.828 105.827C104.236 102.755 103.436 99.376 103.436 95.9979C103.436 92.6144 104.239 89.2303 105.836 86.1544C99.6823 89.3392 92.3138 89.3432 86.1684 86.1645Z" fill="#FFBA08"/>
<path fill-rule="evenodd" clip-rule="evenodd" d="M5.27765 83.3025L19.7539 68.8262L21.1681 70.2404L6.69186 84.7167C0.436046 90.9725 0.436046 101.083 6.69186 107.339L5.98476 108.046L6.69186 107.339L21.1681 121.815L19.7539 123.229L5.27765 108.753C-1.75922 101.716 -1.75922 90.3393 5.27765 83.3025Z" fill="#FFBA08"/>
<path fill-rule="evenodd" clip-rule="evenodd" d="M107.344 6.69186C101.089 0.436046 90.9783 0.436046 84.7225 6.69186L70.2462 21.1681L68.832 19.7539L83.3083 5.27765C90.3451 -1.75922 101.722 -1.75922 108.759 5.27765L123.235 19.7539L121.821 21.1681L107.344 6.69186Z" fill="#FFBA08"/>
<path fill-rule="evenodd" clip-rule="evenodd" d="M70.217 170.829L84.6932 185.305C90.949 191.561 101.059 191.561 107.315 185.305L121.791 170.829L123.206 172.243L108.729 186.719C101.692 193.756 90.3158 193.756 83.279 186.719L83.9861 186.012L83.279 186.719L68.8027 172.243L70.217 170.829Z" fill="#FFBA08"/>
<path fill-rule="evenodd" clip-rule="evenodd" d="M172.246 68.7965L186.723 83.2728C193.759 90.3097 193.759 101.686 186.723 108.723L172.246 123.199L170.832 121.785L185.308 107.309C191.564 101.053 191.564 90.9428 185.308 84.687L170.832 70.2107L172.246 68.7965Z" fill="#FFBA08"/>
</svg>
