<svg width="238" height="237" viewBox="0 0 238 237" fill="none" xmlns="http://www.w3.org/2000/svg">
<path fill-rule="evenodd" clip-rule="evenodd" d="M119.023 136.822C119.576 136.822 120.023 137.269 120.023 137.822V235.054C120.023 235.607 119.576 236.054 119.023 236.054C118.471 236.054 118.023 235.607 118.023 235.054V137.822C118.023 137.269 118.471 136.822 119.023 136.822Z" fill="#FFBA08"/>
<path fill-rule="evenodd" clip-rule="evenodd" d="M119.023 0C119.576 0 120.023 0.447715 120.023 1V98.203C120.023 98.7553 119.576 99.203 119.023 99.203C118.471 99.203 118.023 98.7553 118.023 98.203V1C118.023 0.447715 118.471 0 119.023 0Z" fill="#FFBA08"/>
<path fill-rule="evenodd" clip-rule="evenodd" d="M137.824 118.027C137.824 117.475 138.272 117.027 138.824 117.027H236.027C236.58 117.027 237.027 117.475 237.027 118.027C237.027 118.58 236.58 119.027 236.027 119.027H138.824C138.272 119.027 137.824 118.58 137.824 118.027Z" fill="#FFBA08"/>
<path fill-rule="evenodd" clip-rule="evenodd" d="M0.998047 118.027C0.998047 117.475 1.44576 117.027 1.99805 117.027H99.2306C99.7829 117.027 100.231 117.475 100.231 118.027C100.231 118.58 99.7829 119.027 99.2306 119.027H1.99805C1.44576 119.027 0.998047 118.58 0.998047 118.027Z" fill="#FFBA08"/>
<path fill-rule="evenodd" clip-rule="evenodd" d="M132.336 131.333C132.726 130.942 133.36 130.942 133.75 131.333L202.485 200.068C202.876 200.459 202.876 201.092 202.485 201.483C202.095 201.873 201.462 201.873 201.071 201.483L132.336 132.747C131.945 132.357 131.945 131.723 132.336 131.333Z" fill="#FFBA08"/>
<path fill-rule="evenodd" clip-rule="evenodd" d="M35.578 34.5727C35.9686 34.1822 36.6017 34.1822 36.9923 34.5727L105.728 103.308C106.118 103.699 106.118 104.332 105.728 104.722C105.337 105.113 104.704 105.113 104.313 104.722L35.578 35.9869C35.1875 35.5964 35.1875 34.9632 35.578 34.5727Z" fill="#FFBA08"/>
<path fill-rule="evenodd" clip-rule="evenodd" d="M202.485 34.5727C202.876 34.9632 202.876 35.5964 202.485 35.9869L133.75 104.722C133.36 105.113 132.726 105.113 132.336 104.722C131.945 104.332 131.945 103.699 132.336 103.308L201.071 34.5727C201.462 34.1822 202.095 34.1822 202.485 34.5727Z" fill="#FFBA08"/>
<path fill-rule="evenodd" clip-rule="evenodd" d="M105.728 131.333C106.118 131.723 106.118 132.357 105.728 132.747L36.9923 201.483C36.6017 201.873 35.9686 201.873 35.578 201.483C35.1875 201.092 35.1875 200.459 35.578 200.068L104.313 131.333C104.704 130.942 105.337 130.942 105.728 131.333Z" fill="#FFBA08"/>
</svg>
