<svg width="244" height="244" viewBox="0 0 244 244" fill="none" xmlns="http://www.w3.org/2000/svg">
<path fill-rule="evenodd" clip-rule="evenodd" d="M4.82435 117.117C2.12756 119.814 2.12756 124.186 4.82435 126.883L117.381 239.439C120.077 242.136 124.45 242.136 127.147 239.439L239.703 126.883C242.4 124.186 242.4 119.814 239.703 117.117L127.147 4.56068C124.45 1.86388 120.077 1.86389 117.381 4.56068L4.82435 117.117ZM3.41014 128.297C-0.0677028 124.819 -0.0677018 119.181 3.41014 115.703L115.966 3.14647C119.444 -0.331371 125.083 -0.331378 128.561 3.14646L241.117 115.703C244.595 119.181 244.595 124.819 241.117 128.297L128.561 240.853C125.083 244.331 119.444 244.331 115.966 240.853L3.41014 128.297ZM20.1651 117.109C17.4635 119.81 17.4635 124.19 20.1651 126.892L117.374 224.101C120.075 226.802 124.455 226.802 127.157 224.101L224.366 126.892C227.067 124.19 227.067 119.81 224.366 117.109L127.157 19.9C124.455 17.1984 120.075 17.1984 117.374 19.9L20.1651 117.109ZM18.7509 128.306C15.2682 124.824 15.2682 119.177 18.7509 115.695L115.96 18.4858C119.442 15.0032 125.089 15.0032 128.571 18.4858L225.78 115.695C229.263 119.177 229.263 124.824 225.78 128.306L128.571 225.515C125.089 228.998 119.442 228.998 115.96 225.515L18.7509 128.306ZM35.8469 126.517C33.1506 123.82 33.1506 119.449 35.8469 116.753L117.38 35.2199C120.076 32.5236 124.447 32.5236 127.144 35.2199L208.676 116.753C211.373 119.449 211.373 123.82 208.676 126.517L127.144 208.049C124.447 210.746 120.076 210.746 117.38 208.049L35.8469 126.517ZM34.4327 115.338C30.9553 118.816 30.9553 124.454 34.4327 127.931L115.965 209.464C119.443 212.941 125.081 212.941 128.558 209.464L210.091 127.931C213.568 124.454 213.568 118.816 210.091 115.338L128.558 33.8057C125.081 30.3284 119.443 30.3284 115.965 33.8057L34.4327 115.338ZM51.5592 117.105C48.8557 119.809 48.8557 124.192 51.5592 126.896L117.736 193.072C120.439 195.775 124.822 195.775 127.526 193.072L193.702 126.896C196.406 124.192 196.406 119.809 193.702 117.105L127.526 50.9288C124.822 48.2253 120.439 48.2253 117.736 50.9289L51.5592 117.105ZM50.145 128.31C46.6604 124.825 46.6604 119.176 50.145 115.691L116.321 49.5146C119.806 46.0301 125.455 46.0301 128.94 49.5146L195.116 115.691C198.601 119.176 198.601 124.825 195.116 128.31L128.94 194.486C125.455 197.971 119.806 197.971 116.321 194.486L50.145 128.31ZM66.8718 126.882C64.1758 124.185 64.1758 119.814 66.8718 117.118L117.38 66.61C120.076 63.914 124.447 63.914 127.143 66.61L177.652 117.118C180.348 119.814 180.348 124.185 177.652 126.882L127.143 177.39C124.447 180.086 120.076 180.086 117.38 177.39L66.8718 126.882ZM65.4576 115.704C61.9805 119.181 61.9805 124.819 65.4576 128.296L115.966 178.804C119.443 182.281 125.08 182.281 128.558 178.804L179.066 128.296C182.543 124.819 182.543 119.181 179.066 115.704L128.558 65.1958C125.08 61.7187 119.443 61.7187 115.966 65.1958L65.4576 115.704ZM82.2255 117.097C79.5175 119.805 79.5175 124.195 82.2255 126.903L117.36 162.038C120.068 164.746 124.459 164.746 127.167 162.038L162.302 126.903C165.01 124.195 165.01 119.805 162.302 117.097L127.167 81.9618C124.459 79.2538 120.068 79.2538 117.36 81.9618L82.2255 117.097ZM80.8113 128.317C77.3222 124.828 77.3222 119.171 80.8113 115.682L115.946 80.5476C119.435 77.0586 125.092 77.0586 128.581 80.5476L163.716 115.682C167.205 119.171 167.205 124.828 163.716 128.317L128.581 163.452C125.092 166.941 119.435 166.941 115.946 163.452L80.8113 128.317ZM97.8997 126.515C95.2044 123.82 95.2044 119.45 97.8997 116.754L117.385 97.2687C120.081 94.5735 124.451 94.5735 127.146 97.2687L146.632 116.754C149.327 119.45 149.327 123.82 146.632 126.515L127.146 146.001C124.451 148.696 120.081 148.696 117.385 146.001L97.8997 126.515ZM96.4855 115.34C93.0092 118.817 93.0092 124.453 96.4855 127.929L115.971 147.415C119.448 150.891 125.084 150.891 128.56 147.415L148.046 127.929C151.522 124.453 151.522 118.817 148.046 115.34L128.56 95.8545C125.084 92.3782 119.448 92.3782 115.971 95.8545L96.4855 115.34Z" fill="#FFBA08"/>
</svg>
