<svg width="202" height="202" viewBox="0 0 202 202" fill="none" xmlns="http://www.w3.org/2000/svg">
<path fill-rule="evenodd" clip-rule="evenodd" d="M101.001 200C146.17 200 183.086 155.858 183.086 101C183.086 46.1424 146.17 2.00002 101.001 2.00002C55.8328 2.00003 18.9168 46.1424 18.9168 101C18.9168 155.858 55.8328 200 101.001 200ZM185.086 101C185.086 156.599 147.605 202 101.001 202C54.3973 202 16.9168 156.599 16.9168 101C16.9168 45.4008 54.3973 2.6684e-05 101.001 2.26097e-05C147.605 1.85354e-05 185.086 45.4007 185.086 101Z" fill="#FFBA08"/>
<path fill-rule="evenodd" clip-rule="evenodd" d="M138.468 171.234C148.188 153.31 154.23 128.481 154.23 101C154.23 73.5192 148.188 48.6896 138.468 30.7661C128.727 12.8034 115.436 2.00002 101.002 2.00002C86.5672 2.00002 73.276 12.8034 63.5351 30.7661C53.8153 48.6896 47.7727 73.5192 47.7727 101C47.7728 128.481 53.8153 153.31 63.5351 171.234C73.2761 189.197 86.5673 200 101.002 200C115.436 200 128.727 189.197 138.468 171.234ZM140.226 172.187C130.34 190.418 116.517 202 101.002 202C85.4863 202 71.663 190.418 61.777 172.187C51.8697 153.918 45.7728 128.748 45.7727 101C45.7727 73.2523 51.8697 48.082 61.777 29.8126C71.663 11.5824 85.4862 2.14434e-05 101.002 2.0087e-05C116.517 1.87306e-05 130.34 11.5824 140.226 29.8126C150.134 48.082 156.23 73.2523 156.23 101C156.23 128.748 150.134 153.918 140.226 172.187Z" fill="#FFBA08"/>
<path fill-rule="evenodd" clip-rule="evenodd" d="M114.444 171.511C118.118 153.498 120.398 128.568 120.398 101C120.398 73.432 118.118 48.5022 114.444 30.4892C112.605 21.4745 110.428 14.2448 108.04 9.29291C106.844 6.81471 105.621 4.9597 104.403 3.73764C103.187 2.51808 102.052 2.00002 101 2.00002C99.9486 2.00002 98.8135 2.51808 97.5978 3.73764C96.3796 4.9597 95.1565 6.81471 93.9613 9.29291C91.5732 14.2448 89.3955 21.4745 87.5567 30.4892C83.8824 48.5022 81.6024 73.432 81.6024 101C81.6024 128.568 83.8824 153.498 87.5567 171.511C89.3955 180.526 91.5732 187.755 93.9614 192.707C95.1565 195.185 96.3796 197.04 97.5978 198.262C98.8135 199.482 99.9486 200 101 200C102.052 200 103.187 199.482 104.403 198.262C105.621 197.04 106.844 195.185 108.04 192.707C110.428 187.755 112.605 180.526 114.444 171.511ZM105.82 199.674C104.38 201.119 102.765 202 101 202C99.2359 202 97.6213 201.119 96.1813 199.674C94.7438 198.232 93.4051 196.158 92.1599 193.576C89.6672 188.407 87.4495 180.992 85.5971 171.911C81.8887 153.731 79.6024 128.66 79.6024 101C79.6024 73.3396 81.8887 48.2694 85.597 30.0895C87.4495 21.0077 89.6672 13.5928 92.1599 8.42414C93.4051 5.84204 94.7438 3.76781 96.1813 2.32569C97.6213 0.881075 99.2359 1.72837e-05 101 1.71295e-05C102.765 1.69752e-05 104.38 0.881075 105.82 2.32569C107.257 3.76781 108.596 5.84204 109.841 8.42413C112.334 13.5928 114.551 21.0077 116.404 30.0895C120.112 48.2694 122.398 73.3396 122.398 101C122.398 128.66 120.112 153.731 116.404 171.911C114.551 180.992 112.334 188.407 109.841 193.576C108.596 196.158 107.257 198.232 105.82 199.674Z" fill="#FFBA08"/>
<path fill-rule="evenodd" clip-rule="evenodd" d="M101 200C155.676 200 200 155.676 200 101C200 46.3238 155.676 2.00002 101 2.00002C46.3238 2.00003 1.99999 46.3239 1.99999 101C2 155.676 46.3238 200 101 200ZM202 101C202 156.781 156.781 202 101 202C45.2192 202 -3.95319e-06 156.781 -8.8297e-06 101C-1.37062e-05 45.2193 45.2192 2.8965e-05 101 2.40885e-05C156.781 1.9212e-05 202 45.2193 202 101Z" fill="#FFBA08"/>
<path fill-rule="evenodd" clip-rule="evenodd" d="M192.448 116.444C197.384 111.694 200 106.584 200 101.321C200 96.0573 197.384 90.9467 192.448 86.1968C187.51 81.4442 180.311 77.1181 171.334 73.4638C153.384 66.1574 128.518 61.6154 101 61.6154C73.4823 61.6154 48.616 66.1574 30.6663 73.4639C21.6889 77.1181 14.4903 81.4442 9.55191 86.1968C4.61628 90.9467 2 96.0573 2 101.321C2 106.584 4.61628 111.694 9.55191 116.444C14.4903 121.197 21.6889 125.523 30.6663 129.177C48.616 136.484 73.4823 141.026 101 141.026C128.518 141.026 153.384 136.484 171.334 129.177C180.311 125.523 187.51 121.197 192.448 116.444ZM172.088 131.03C153.845 138.455 128.711 143.026 101 143.026C73.2893 143.026 48.1555 138.456 29.9123 131.03C20.7932 127.318 13.3472 122.873 8.16507 117.885C2.98015 112.895 -3.12343e-06 107.298 -3.64598e-06 101.321C-4.16852e-06 95.3433 2.98014 89.7456 8.16506 84.7557C13.3472 79.7685 20.7932 75.3234 29.9123 71.6114C48.1555 64.1855 73.2893 59.6154 101 59.6154C128.711 59.6154 153.845 64.1855 172.088 71.6114C181.207 75.3234 188.653 79.7685 193.835 84.7557C199.02 89.7456 202 95.3433 202 101.321C202 107.298 199.02 112.895 193.835 117.885C188.653 122.873 181.207 127.318 172.088 131.03Z" fill="#FFBA08"/>
</svg>
