<svg width="62" height="62" viewBox="0 0 62 62" fill="none" xmlns="http://www.w3.org/2000/svg">
<path fill-rule="evenodd" clip-rule="evenodd" d="M31 1.04321C14.7346 1.04321 1.5 14.2843 1.5 30.55C1.5 46.6485 14.4641 59.7779 30.5 60.0458V60.0432H31C47.2655 60.0432 60.5 46.8087 60.5 30.5432C60.5 14.2777 47.2655 1.04321 31 1.04321ZM31.5 61.0392C48.0882 60.7712 61.5 47.194 61.5 30.5432C61.5 13.7254 47.8178 0.0432129 31 0.0432129C14.182 0.0432129 0.5 13.7323 0.5 30.55C0.5 47.3678 14.1822 61.05 31 61.05H31.5V61.0392ZM31.0007 4.8042C16.8088 4.8042 5.26172 16.3513 5.26172 30.5432C5.26172 44.7351 16.8088 56.2821 31.0007 56.2821C45.1926 56.2821 56.7397 44.7351 56.7397 30.5432C56.7397 16.3513 45.1926 4.8042 31.0007 4.8042ZM4.26172 30.5432C4.26172 15.799 16.2565 3.8042 31.0007 3.8042C45.7449 3.8042 57.7397 15.799 57.7397 30.5432C57.7397 45.2873 45.7449 57.2821 31.0007 57.2821C16.2565 57.2821 4.26172 45.2873 4.26172 30.5432ZM9.02148 30.5433C9.02148 18.425 18.8812 8.56531 30.9994 8.56531C43.1177 8.56531 52.9774 18.425 52.9774 30.5433C52.9774 42.6682 43.1178 52.5212 30.9994 52.5212C18.8812 52.5212 9.02148 42.6615 9.02148 30.5433ZM30.9994 7.56531C18.3289 7.56531 8.02148 17.8727 8.02148 30.5433C8.02148 43.2138 18.3289 53.5212 30.9994 53.5212C43.6699 53.5212 53.9774 43.2207 53.9774 30.5433C53.9774 17.8727 43.67 7.56531 30.9994 7.56531ZM31.0002 12.3262C20.9554 12.3262 12.7832 20.4919 12.7832 30.5431C12.7832 40.5946 20.9557 48.7669 31.0002 48.7669C41.0447 48.7669 49.2171 40.5946 49.2171 30.5431C49.2171 20.4985 41.0448 12.3262 31.0002 12.3262ZM11.7832 30.5431C11.7832 19.9393 20.4034 11.3262 31.0002 11.3262C41.5971 11.3262 50.2171 19.9462 50.2171 30.5431C50.2171 41.1467 41.5972 49.7669 31.0002 49.7669C20.4031 49.7669 11.7832 41.1467 11.7832 30.5431ZM16.5312 30.5432C16.5312 22.5654 23.0162 16.0804 30.994 16.0804C38.9717 16.0804 45.4567 22.5654 45.4567 30.5432C45.4567 38.5209 38.9717 45.0059 30.994 45.0059C23.0162 45.0059 16.5312 38.5209 16.5312 30.5432ZM30.994 15.0804C22.4639 15.0804 15.5312 22.0131 15.5312 30.5432C15.5312 39.0732 22.4639 46.0059 30.994 46.0059C39.524 46.0059 46.4567 39.0732 46.4567 30.5432C46.4567 22.0131 39.524 15.0804 30.994 15.0804ZM20.3152 29.4844C19.7334 35.3661 24.0297 40.6059 29.9114 41.1878C35.793 41.7697 41.0328 37.4733 41.6147 31.5916C42.1966 25.71 37.9002 20.4702 32.0186 19.8883C26.1369 19.3064 20.8971 23.6028 20.3152 29.4844ZM29.8129 42.1829C23.3816 41.5467 18.6838 35.8173 19.3201 29.386C19.9564 22.9547 25.6857 18.2569 32.117 18.8932C38.5483 19.5294 43.2461 25.2588 42.6098 31.6901C41.9736 38.1214 36.2442 42.8192 29.8129 42.1829ZM24.0586 30.5432C24.0586 26.71 27.166 23.6025 30.9993 23.6025C34.8325 23.6025 37.94 26.71 37.94 30.5432C37.94 34.3765 34.8325 37.4839 30.9993 37.4839C27.166 37.4839 24.0586 34.3765 24.0586 30.5432ZM30.9993 22.6025C26.6138 22.6025 23.0586 26.1577 23.0586 30.5432C23.0586 34.9288 26.6138 38.4839 30.9993 38.4839C35.3848 38.4839 38.94 34.9288 38.94 30.5432C38.94 26.1577 35.3848 22.6025 30.9993 22.6025Z" fill="#FFBA08"/>
</svg>
