<svg width="40" height="62" viewBox="0 0 40 62" fill="none" xmlns="http://www.w3.org/2000/svg">
<path fill-rule="evenodd" clip-rule="evenodd" d="M18 18L-4.1008e-05 -4.1008e-05H39.5979L21.5979 18H39.5979L19.799 37.799L-4.1008e-05 18H18ZM7.02715 61.255C9.94837 61.255 12.4533 59.4725 13.5135 56.9358C14.5737 59.4725 17.0786 61.255 19.9998 61.255C22.921 61.255 25.4259 59.4725 26.4861 56.9358C27.5464 59.4725 30.0512 61.255 32.9725 61.255C36.8534 61.255 39.9995 58.1089 39.9995 54.228C39.9995 50.347 36.8534 47.2009 32.9725 47.2009C30.0512 47.2009 27.5464 48.9834 26.4861 51.5201C25.4259 48.9834 22.921 47.2009 19.9998 47.2009C17.0786 47.2009 14.5737 48.9834 13.5135 51.5201C12.4533 48.9834 9.94837 47.2009 7.02715 47.2009C3.14623 47.2009 0.00012207 50.347 0.00012207 54.228C0.00012207 58.1089 3.14623 61.255 7.02715 61.255Z" fill="#FFBA08"/>
</svg>
