<svg width="56" height="56" viewBox="0 0 56 56" fill="none" xmlns="http://www.w3.org/2000/svg">
<path fill-rule="evenodd" clip-rule="evenodd" d="M29 1C29 0.447715 28.5523 0 28 0C27.4477 0 27 0.447715 27 1V23.3129C26.9958 23.3501 26.9936 23.3879 26.9936 23.4263C26.9936 23.9352 26.8872 24.4198 26.6942 24.859C26.2583 24.6884 25.8494 24.4289 25.4955 24.0806C25.489 24.0737 25.4823 24.0669 25.4756 24.0601L9.61726 8.20183C9.22674 7.8113 8.59357 7.8113 8.20305 8.20183C7.81253 8.59235 7.81253 9.22552 8.20305 9.61604L24.0378 25.4508C24.0452 25.4587 24.0528 25.4665 24.0605 25.4742C24.4202 25.8339 24.6876 26.2511 24.8623 26.6963C24.4205 26.892 23.9326 27 23.4199 27L23.4179 27H1C0.447715 27 0 27.4477 0 28C0 28.5523 0.447715 29 1 29L23.4199 29L23.4237 29C23.9375 29.0005 24.4232 29.1081 24.8626 29.3028C24.688 29.7483 24.4204 30.1659 24.0605 30.5258C24.052 30.5342 24.0438 30.5428 24.0357 30.5514L8.20305 46.3841C7.81253 46.7746 7.81253 47.4078 8.20305 47.7983C8.59357 48.1889 9.22674 48.1889 9.61726 47.7983L25.4756 31.94C25.4821 31.9335 25.4885 31.9269 25.4948 31.9203C25.8524 31.5714 26.2605 31.3115 26.6939 31.1404C26.8871 31.5798 26.9936 32.0645 26.9936 32.5737C26.9936 32.6121 26.9958 32.6499 27 32.6871V54.9999C27 55.5522 27.4477 55.9999 28 55.9999C28.5523 55.9999 29 55.5522 29 54.9999V32.5669C29 32.5335 28.9984 32.5006 28.9952 32.4681C29.0089 31.9954 29.1146 31.5453 29.2957 31.1349C29.7441 31.3095 30.1643 31.5781 30.5263 31.94C30.5352 31.9489 30.5442 31.9576 30.5533 31.9661L46.3856 47.7983C46.7761 48.1889 47.4093 48.1889 47.7998 47.7983C48.1903 47.4078 48.1903 46.7746 47.7998 46.3841L31.9415 30.5258C31.9336 30.5179 31.9256 30.5102 31.9175 30.5026C31.568 30.1468 31.3076 29.7362 31.1367 29.2985C31.5754 29.1061 32.0592 29 32.5674 29L32.5684 29H54.9946C55.5469 29 55.9946 28.5523 55.9946 28C55.9946 27.4477 55.5469 27 54.9946 27H32.6771C32.6386 26.9955 32.5997 26.9932 32.5606 26.9932C32.0552 26.9932 31.5741 26.8879 31.1381 26.698C31.3087 26.2624 31.5681 25.8536 31.9158 25.4991C31.9245 25.4911 31.933 25.4828 31.9415 25.4744L47.7998 9.61604C48.1903 9.22552 48.1903 8.59235 47.7998 8.20183C47.4093 7.8113 46.7761 7.8113 46.3856 8.20183L30.5553 24.0321C30.5459 24.0408 30.5367 24.0496 30.5277 24.0586C30.1644 24.4205 29.7434 24.6883 29.2946 24.8624C29.1138 24.452 29.0081 24.0009 28.995 23.5266C28.9983 23.4936 29 23.4601 29 23.4262V1Z" fill="#FFBA08"/>
</svg>
