<svg width="38" height="38" viewBox="0 0 38 38" fill="none" xmlns="http://www.w3.org/2000/svg">
<path fill-rule="evenodd" clip-rule="evenodd" d="M17.0829 32.9483C15.4514 33.8627 13.8565 34.5774 12.3472 35.0805C7.96609 36.5408 4.94219 36.0531 3.42329 34.5342C1.90439 33.0153 1.41664 29.9914 2.87701 25.6103C3.38006 24.1011 4.09466 22.5063 5.00894 20.875C6.52739 23.1073 8.36658 25.3374 10.4925 27.4634C12.6191 29.59 14.8499 31.4296 17.0829 32.9483ZM18.9785 31.8054C16.6091 30.2763 14.2035 28.3459 11.9068 26.0492C9.61066 23.7531 7.68067 21.3482 6.15177 18.9794C7.68096 16.6097 9.61157 14.2038 11.9086 11.9068C14.2047 9.61062 16.6097 7.6806 18.9785 6.15169C21.3475 7.68064 23.7526 9.61076 26.0489 11.907C28.3458 14.2039 30.2763 16.6098 31.8055 18.9794C30.2766 21.3481 28.3467 23.7529 26.0507 26.0489C23.7538 28.3458 21.3481 30.2763 18.9785 31.8054ZM18.9785 34.1608C12.0243 38.3286 5.33084 39.2701 2.00908 35.9484C-1.31261 32.6267 -0.371205 25.9335 3.79639 18.9795C-0.372748 12.0244 -1.31491 5.32971 2.00726 2.00754C5.32931 -1.31451 12.0236 -0.372528 18.9785 3.79626C25.9335 -0.372769 32.6281 -1.31487 35.9502 2.00726C39.2724 5.32947 38.3302 12.0243 34.1609 18.9795C38.3286 25.9336 39.2701 32.6269 35.9484 35.9487C32.6265 39.2705 25.9329 38.3289 18.9785 34.1608ZM32.9483 20.875C33.8627 22.5064 34.5774 24.1013 35.0805 25.6106C36.5408 29.9917 36.0531 33.0156 34.5342 34.5345C33.0153 36.0534 29.9914 36.5411 25.6103 35.0807C24.1009 34.5776 22.5058 33.8628 20.8741 32.9483C23.1073 31.4296 25.3382 29.5898 27.4649 27.4631C29.5908 25.3372 31.4299 23.1072 32.9483 20.875ZM32.9485 17.0839C33.8637 15.4514 34.5789 13.8555 35.0823 12.3454C36.5426 7.96427 36.0549 4.94038 34.536 3.42147C33.0171 1.90257 29.9932 1.41482 25.6121 2.87519C24.1021 3.37853 22.5063 4.09367 20.874 5.00872C23.1065 6.52726 25.3369 8.36663 27.4631 10.4928C29.5899 12.6196 31.4297 14.8507 32.9485 17.0839ZM17.083 5.00875C15.4509 4.09382 13.8553 3.37877 12.3454 2.87547C7.96427 1.41511 4.94037 1.90285 3.42147 3.42176C1.90257 4.94066 1.41482 7.96456 2.87519 12.3457C3.37854 13.8557 4.0937 15.4515 5.00877 17.0839C6.5276 14.8506 8.36747 12.6194 10.4944 10.4925C12.6204 8.36649 14.8506 6.52723 17.083 5.00875ZM17.9786 19.978H11.9786V17.978H17.9786V11.978H19.9786V17.978H25.9786L25.9786 19.978H19.9786V25.978H17.9786V19.978Z" fill="#FFBA08"/>
</svg>
