<svg width="49" height="49" viewBox="0 0 49 49" fill="none" xmlns="http://www.w3.org/2000/svg">
<path fill-rule="evenodd" clip-rule="evenodd" d="M11.5258 11.5258C16.0236 7.02797 21.0161 4.0166 25.3739 2.72103C29.8176 1.39994 33.0871 1.97441 34.8603 3.74761C35.2142 4.10152 35.5204 4.51505 35.7733 4.98561C29.9339 4.54434 21.8792 8.2453 15.0627 15.0618C8.24567 21.8788 4.54466 29.9344 4.98671 35.7738C4.51568 35.5209 4.1018 35.2145 3.74761 34.8603C1.97441 33.0871 1.39994 29.8176 2.72103 25.3739C4.0166 21.0161 7.02797 16.0236 11.5258 11.5258ZM5.43184 38.1277C4.23843 37.7458 3.19118 37.1323 2.3334 36.2745C-2.74342 31.1977 0.738989 19.4842 10.1116 10.1116C19.4842 0.73899 31.1977 -2.74342 36.2745 2.3334C37.132 3.19084 37.7453 4.23759 38.1273 5.43041C39.3207 5.81237 40.3679 6.42581 41.2257 7.28359C42.0832 8.14107 42.6965 9.18788 43.0785 10.3808C44.271 10.7628 45.3176 11.376 46.1749 12.2333C51.2517 17.3101 47.7693 29.0237 38.3967 38.3962C29.0242 47.7688 17.3106 51.2512 12.2338 46.1744C11.3763 45.3169 10.763 44.2701 10.381 43.0773C9.18843 42.6953 8.14188 42.082 7.28457 41.2247C6.42713 40.3673 5.81384 39.3205 5.43184 38.1277ZM36.4736 7.08431C34.8047 6.79543 32.738 6.95389 30.3251 7.67123C25.9672 8.9668 20.9748 11.9782 16.477 16.476C11.9791 20.9738 8.96777 25.9663 7.6722 30.3241C6.95469 32.7376 6.79633 34.8047 7.08549 36.4738C8.01837 36.6353 9.07553 36.657 10.248 36.5194C11.3018 31.3489 14.7169 25.3066 20.012 20.0115C25.3069 14.7165 31.349 11.3015 36.5195 10.2476C36.657 9.0748 36.6352 8.01737 36.4736 7.08431ZM38.5564 9.95146C38.619 9.2017 38.6249 8.47739 38.5724 7.78429C39.0434 8.03727 39.4573 8.34362 39.8115 8.69781C40.1653 9.05163 40.4714 9.46503 40.7242 9.93545C40.0309 9.88296 39.3064 9.88887 38.5564 9.95146ZM36.1191 12.3889C35.8424 12.4585 35.5608 12.5358 35.2743 12.6209C30.9165 13.9165 25.924 16.9279 21.4262 21.4257C16.9284 25.9235 13.917 30.916 12.6214 35.2738C12.5362 35.5604 12.4589 35.8422 12.3893 36.119C12.6659 36.0494 12.9475 35.9721 13.234 35.8869C17.5918 34.5913 22.5843 31.58 27.0821 27.0821C31.58 22.5843 34.5913 17.5918 35.8869 13.234C35.9721 12.9474 36.0494 12.6656 36.1191 12.3889ZM11.9888 38.2603C17.1593 37.2064 23.2014 33.7913 28.4963 28.4963C33.7914 23.2013 37.2065 17.159 38.2604 11.9884C39.4336 11.8507 40.4914 11.8726 41.4247 12.0344C41.7139 13.7035 41.5556 15.7707 40.8381 18.1842C39.5425 22.542 36.5311 27.5345 32.0333 32.0323C27.5355 36.5301 22.543 39.5415 18.1852 40.8371C15.7714 41.5547 13.704 41.713 12.0347 41.4237C11.8731 40.4906 11.8513 39.4331 11.9888 38.2603ZM9.95191 38.5564C9.88938 39.3059 9.88346 40.03 9.93588 40.723C9.46569 40.4702 9.05247 40.1642 8.69878 39.8105C8.34487 39.4566 8.03871 39.0431 7.78585 38.5725C8.47861 38.6249 9.20255 38.6189 9.95191 38.5564ZM44.7607 13.6475C44.407 13.2938 43.9938 12.9878 43.5236 12.7351C43.9654 18.5745 40.2644 26.6297 33.4475 33.4465C26.6304 40.2637 18.5747 43.9647 12.7353 43.5226C12.9881 43.993 13.2942 44.4064 13.648 44.7602C15.4212 46.5334 18.6907 47.1079 23.1344 45.7868C27.4922 44.4912 32.4847 41.4799 36.9825 36.982C41.4803 32.4842 44.4917 27.4917 45.7873 23.1339C47.1084 18.6903 46.5339 15.4207 44.7607 13.6475Z" fill="#FFBA08"/>
</svg>
