<svg width="88" height="88" viewBox="0 0 88 88" fill="none" xmlns="http://www.w3.org/2000/svg">
<path fill-rule="evenodd" clip-rule="evenodd" d="M0 0H88V88H0V0ZM43.6602 3C44.2124 3 44.6602 3.44772 44.6602 4V36.8997C44.661 36.9164 44.6614 36.9333 44.6614 36.9502C44.6614 40.1069 47.2227 42.6602 50.3714 42.6602C50.4194 42.6602 50.467 42.6636 50.514 42.6704H83.3308C83.8831 42.6704 84.3308 43.1181 84.3308 43.6704C84.3308 44.2227 83.8831 44.6704 83.3308 44.6704H50.3809L50.3617 44.6702C48.7954 44.6755 47.3743 45.3115 46.3385 46.3473C45.2983 47.3875 44.6614 48.8161 44.6614 50.3902C44.6614 50.4071 44.661 50.4239 44.6602 50.4407V83.3404C44.6602 83.8927 44.2124 84.3404 43.6602 84.3404C43.1079 84.3404 42.6602 83.8927 42.6602 83.3404V50.3804C42.6602 50.3653 42.6605 50.3503 42.6611 50.3354C42.6465 48.783 42.0124 47.3754 40.9843 46.3473C39.9493 45.3123 38.5404 44.6773 36.9678 44.6703L36.95 44.6704H4C3.44772 44.6704 3 44.2227 3 43.6704C3 43.1181 3.44772 42.6704 4 42.6704H36.9205L36.9414 42.6702C38.5155 42.6702 39.9441 42.0333 40.9843 40.9931C42.0143 39.9631 42.6488 38.5523 42.6612 36.9966C42.6605 36.9812 42.6602 36.9656 42.6602 36.95V4C42.6602 3.44772 43.1079 3 43.6602 3Z" fill="#FFBA08"/>
</svg>
