<svg width="157" height="62" viewBox="0 0 157 62" fill="none" xmlns="http://www.w3.org/2000/svg">
<path fill-rule="evenodd" clip-rule="evenodd" d="M33.3131 10.6928C21.7687 16.0848 15.0771 23.3346 15.0771 31C15.0771 38.6654 21.7687 45.9151 33.3131 51.3072C44.7766 56.6614 60.6836 60 78.3079 60C95.9322 60 111.839 56.6614 123.303 51.3072C134.847 45.9151 141.539 38.6654 141.539 31C141.539 23.3346 134.847 16.0849 123.303 10.6928C111.839 5.33862 95.9322 2 78.3079 2C60.6836 2 44.7766 5.33862 33.3131 10.6928ZM32.4667 8.88075C44.2502 3.37711 60.4585 0 78.3079 0C96.1573 0 112.366 3.37711 124.149 8.88075C135.852 14.3466 143.539 22.0969 143.539 31C143.539 39.9031 135.852 47.6534 124.149 53.1192C112.366 58.6229 96.1573 62 78.3079 62C60.4585 62 44.2502 58.6229 32.4667 53.1192C20.7642 47.6534 13.0771 39.9031 13.0771 31C13.0771 22.0969 20.7642 14.3466 32.4667 8.88075Z" fill="#FFBA08"/>
<path fill-rule="evenodd" clip-rule="evenodd" d="M49.2457 10.6C41.8455 15.8956 37.3848 23.1217 37.3848 31C37.3848 38.8783 41.8455 46.1044 49.2457 51.4C56.6441 56.6942 66.9159 60 78.3078 60C89.6998 60 99.9716 56.6942 107.37 51.4C114.77 46.1044 119.231 38.8783 119.231 31C119.231 23.1217 114.77 15.8956 107.37 10.6C99.9716 5.30577 89.6998 2 78.3078 2C66.9159 2 56.6441 5.30577 49.2457 10.6ZM48.0818 8.97357C55.8566 3.40995 66.5463 0 78.3078 0C90.0694 0 100.759 3.40996 108.534 8.97357C116.307 14.5359 121.231 22.3098 121.231 31C121.231 39.6902 116.307 47.4641 108.534 53.0264C100.759 58.59 90.0694 62 78.3078 62C66.5463 62 55.8566 58.59 48.0818 53.0264C40.3088 47.4641 35.3848 39.6902 35.3848 31C35.3848 22.3098 40.3088 14.5359 48.0818 8.97357Z" fill="#FFBA08"/>
<path fill-rule="evenodd" clip-rule="evenodd" d="M68.0424 10.2521C65.2783 15.5106 63.5386 22.8445 63.5386 31C63.5386 39.1555 65.2783 46.4894 68.0424 51.7479C70.831 57.053 74.5099 60 78.3078 60C82.1057 60 85.7846 57.053 88.5732 51.7479C91.3373 46.4894 93.077 39.1555 93.077 31C93.077 22.8445 91.3373 15.5106 88.5732 10.2521C85.7846 4.94702 82.1057 2 78.3078 2C74.5099 2 70.831 4.94702 68.0424 10.2521ZM66.2721 9.32152C69.1909 3.76871 73.3966 0 78.3078 0C83.219 0 87.4247 3.76871 90.3435 9.32152C93.2867 14.9208 95.077 22.587 95.077 31C95.077 39.413 93.2867 47.0792 90.3435 52.6785C87.4247 58.2313 83.219 62 78.3078 62C73.3966 62 69.1909 58.2313 66.2721 52.6785C63.3289 47.0792 61.5386 39.413 61.5386 31C61.5386 22.587 63.3289 14.9208 66.2721 9.32152Z" fill="#FFBA08"/>
<path fill-rule="evenodd" clip-rule="evenodd" d="M7.75127 20.0595C3.96337 23.5348 2 27.2331 2 31C2 34.7669 3.96337 38.4652 7.75127 41.9405C11.5399 45.4165 17.0775 48.5928 24.0047 51.2809C37.8526 56.6548 57.0513 60 78.3077 60C99.5641 60 118.763 56.6548 132.611 51.2809C139.538 48.5928 145.075 45.4165 148.864 41.9405C152.652 38.4652 154.615 34.7669 154.615 31C154.615 27.2331 152.652 23.5348 148.864 20.0595C145.075 16.5835 139.538 13.4072 132.611 10.7191C118.763 5.34523 99.5641 2 78.3077 2C57.0513 2 37.8526 5.34523 24.0047 10.7191C17.0775 13.4072 11.5399 16.5835 7.75127 20.0595ZM23.2811 8.85453C37.4131 3.3705 56.8682 0 78.3077 0C99.7472 0 119.202 3.3705 133.334 8.85453C140.397 11.5953 146.181 14.8835 150.216 18.5858C154.252 22.2888 156.615 26.4827 156.615 31C156.615 35.5173 154.252 39.7112 150.216 43.4142C146.181 47.1165 140.397 50.4047 133.334 53.1455C119.202 58.6295 99.7472 62 78.3077 62C56.8682 62 37.4131 58.6295 23.2811 53.1455C16.2184 50.4047 10.4345 47.1165 6.39917 43.4142C2.36311 39.7112 0 35.5173 0 31C0 26.4827 2.36311 22.2888 6.39917 18.5858C10.4345 14.8835 16.2184 11.5953 23.2811 8.85453Z" fill="#FFBA08"/>
<path fill-rule="evenodd" clip-rule="evenodd" d="M3.18167 29.2344C2.24687 29.956 2 30.5208 2 30.9039C2 31.2869 2.24687 31.8517 3.18167 32.5733C4.09713 33.28 5.50971 34.005 7.42508 34.7203C11.2446 36.1468 16.829 37.45 23.7989 38.551C37.723 40.7504 56.9953 42.1154 78.3077 42.1154C99.6201 42.1154 118.892 40.7504 132.816 38.551C139.786 37.45 145.371 36.1468 149.19 34.7203C151.106 34.005 152.518 33.28 153.434 32.5733C154.368 31.8517 154.615 31.2869 154.615 30.9039C154.615 30.5208 154.368 29.956 153.434 29.2344C152.518 28.5277 151.106 27.8027 149.19 27.0874C145.371 25.6609 139.786 24.3577 132.816 23.2568C118.892 21.0573 99.6201 19.6923 78.3077 19.6923C56.9953 19.6923 37.723 21.0573 23.7989 23.2568C16.829 24.3577 11.2446 25.6609 7.42508 27.0874C5.50971 27.8027 4.09713 28.5277 3.18167 29.2344ZM23.4869 21.2812C37.5426 19.061 56.9242 17.6923 78.3077 17.6923C99.6912 17.6923 119.073 19.061 133.128 21.2812C140.148 22.3901 145.886 23.7183 149.89 25.2138C151.887 25.9594 153.512 26.768 154.656 27.6512C155.781 28.5195 156.615 29.6008 156.615 30.9039C156.615 32.2069 155.781 33.2882 154.656 34.1565C153.512 35.0397 151.887 35.8483 149.89 36.5939C145.886 38.0894 140.148 39.4176 133.128 40.5265C119.073 42.7467 99.6912 44.1154 78.3077 44.1154C56.9242 44.1154 37.5426 42.7467 23.4869 40.5265C16.4669 39.4176 10.7298 38.0894 6.72536 36.5939C4.72875 35.8483 3.10372 35.0397 1.95956 34.1565C0.834747 33.2882 0 32.2069 0 30.9039C0 29.6008 0.834747 28.5195 1.95956 27.6512C3.10372 26.768 4.72875 25.9594 6.72536 25.2138C10.7298 23.7183 16.4669 22.3901 23.4869 21.2812Z" fill="#FFBA08"/>
</svg>
