<svg width="89" height="103" viewBox="0 0 89 103" fill="none" xmlns="http://www.w3.org/2000/svg">
<path fill-rule="evenodd" clip-rule="evenodd" d="M44.0065 102.49C44.3155 102.668 44.696 102.668 45.0049 102.49L88.4993 77.4282C88.8091 77.2497 89 76.9193 89 76.5618L89 26.4379C89 26.0803 88.8091 25.75 88.4992 25.5714L45.0049 0.509528C44.6959 0.331481 44.3155 0.331458 44.0065 0.509467L0.50084 25.5714C0.190965 25.7499 0 26.0803 0 26.4379L5.43841e-06 76.5618C5.46967e-06 76.9194 0.190969 77.2498 0.500845 77.4283L44.0065 102.49ZM87 75.9838L44.5056 100.47L2.00001 75.9838L2 27.0159L44.5056 2.53007L87 27.0158L87 75.9838ZM44.5996 46.4694C44.0473 46.4694 43.5996 46.0217 43.5996 45.4694L43.5996 15.6126C43.5996 15.0603 44.0473 14.6126 44.5996 14.6126C45.1519 14.6126 45.5996 15.0603 45.5996 15.6126L45.5996 45.4694C45.5996 46.0217 45.1519 46.4694 44.5996 46.4694ZM39.457 51.5988C39.457 52.1511 39.0093 52.5988 38.457 52.5988H8.53221C7.97992 52.5988 7.53221 52.1511 7.53221 51.5988C7.53221 51.0465 7.97992 50.5988 8.53221 50.5988H38.457C39.0093 50.5988 39.457 51.0465 39.457 51.5988ZM81.4688 51.5988C81.4688 52.1511 81.021 52.5988 80.4688 52.5988H50.5439C49.9916 52.5988 49.5439 52.1511 49.5439 51.5988C49.5439 51.0465 49.9916 50.5988 50.5439 50.5988H80.4687C81.021 50.5988 81.4687 51.0465 81.4688 51.5988ZM43.5996 87.3874C43.5996 87.9396 44.0473 88.3874 44.5996 88.3874C45.1519 88.3874 45.5996 87.9396 45.5996 87.3874L45.5996 57.5305C45.5996 56.9783 45.1519 56.5305 44.5996 56.5305C44.0473 56.5305 43.5996 56.9783 43.5996 57.5305L43.5996 87.3874Z" fill="#FFBA08"/>
</svg>
